<svg id="svg" fill="#8000ff" stroke="#8000ff" width="200" height="200" version="1.1" viewBox="144 144 512 512" xmlns="http://www.w3.org/2000/svg">
    <g id="IconSvg_bgCarrier" stroke-width="0"></g>
    <g id="IconSvg_tracerCarrier" stroke-linecap="round" stroke-linejoin="round" stroke="#CCCCCC" stroke-width="0">
      <path xmlns="http://www.w3.org/2000/svg" d="m479.66 341.27c4.4609 4.4062 6.9727 10.418 6.9727 16.688 0 6.2734-2.5117 12.281-6.9727 16.691l-83.914 84.074-0.003906-0.003906c-4.4414 4.4023-10.434 6.8906-16.688 6.9297-6.2617-0.007813-12.266-2.5-16.688-6.9297l-42.035-42.035h-0.003907c-5.6133-6.0273-7.6836-14.547-5.457-22.48 2.2227-7.9336 8.4219-14.133 16.355-16.355 7.9336-2.2266 16.453-0.16016 22.48 5.457l25.348 25.348 67.227-67.383c4.4492-4.3828 10.445-6.8438 16.691-6.8438 6.2422 0 12.238 2.4609 16.688 6.8438zm132.25 242.46c1.8203 7.8945-0.5625 16.168-6.2969 21.887-4.4453 4.3984-10.438 6.8867-16.691 6.9258-1.7227 0.23047-3.4688 0.23047-5.1953 0l-91.789-20.309h0.003906c-45.234 21.707-96.691 26.715-145.26 14.133-48.57-12.582-91.125-41.941-120.13-82.879-29.008-40.938-42.598-90.816-38.363-140.81 4.2344-49.992 26.02-96.879 61.496-132.36 35.477-35.477 82.363-57.262 132.36-61.492 49.992-4.2344 99.875 9.3516 140.81 38.359 40.938 29.004 70.297 71.559 82.879 120.13 12.578 48.57 7.5742 100.02-14.133 145.26zm-66.125-105.96c18.688-34.996 24.18-75.539 15.477-114.25-8.7031-38.707-31.023-73-62.895-96.625-31.867-23.629-71.168-35.02-110.73-32.094-39.566 2.9219-76.766 19.961-104.82 48.016-28.055 28.051-45.094 65.25-48.016 104.82-2.9258 39.562 8.4648 78.863 32.094 110.73 23.625 31.871 57.918 54.191 96.625 62.895 38.707 8.7031 79.25 3.2109 114.25-15.477 4.8477-2.4961 10.398-3.2734 15.746-2.2031l63.918 13.852-13.852-62.977c-1.2148-5.6484-0.4375-11.547 2.2031-16.688z"></path>

      </g>
     <g id="IconSvg_iconCarrier">
      <path xmlns="http://www.w3.org/2000/svg" d="m479.66 341.27c4.4609 4.4062 6.9727 10.418 6.9727 16.688 0 6.2734-2.5117 12.281-6.9727 16.691l-83.914 84.074-0.003906-0.003906c-4.4414 4.4023-10.434 6.8906-16.688 6.9297-6.2617-0.007813-12.266-2.5-16.688-6.9297l-42.035-42.035h-0.003907c-5.6133-6.0273-7.6836-14.547-5.457-22.48 2.2227-7.9336 8.4219-14.133 16.355-16.355 7.9336-2.2266 16.453-0.16016 22.48 5.457l25.348 25.348 67.227-67.383c4.4492-4.3828 10.445-6.8438 16.691-6.8438 6.2422 0 12.238 2.4609 16.688 6.8438zm132.25 242.46c1.8203 7.8945-0.5625 16.168-6.2969 21.887-4.4453 4.3984-10.438 6.8867-16.691 6.9258-1.7227 0.23047-3.4688 0.23047-5.1953 0l-91.789-20.309h0.003906c-45.234 21.707-96.691 26.715-145.26 14.133-48.57-12.582-91.125-41.941-120.13-82.879-29.008-40.938-42.598-90.816-38.363-140.81 4.2344-49.992 26.02-96.879 61.496-132.36 35.477-35.477 82.363-57.262 132.36-61.492 49.992-4.2344 99.875 9.3516 140.81 38.359 40.938 29.004 70.297 71.559 82.879 120.13 12.578 48.57 7.5742 100.02-14.133 145.26zm-66.125-105.96c18.688-34.996 24.18-75.539 15.477-114.25-8.7031-38.707-31.023-73-62.895-96.625-31.867-23.629-71.168-35.02-110.73-32.094-39.566 2.9219-76.766 19.961-104.82 48.016-28.055 28.051-45.094 65.25-48.016 104.82-2.9258 39.562 8.4648 78.863 32.094 110.73 23.625 31.871 57.918 54.191 96.625 62.895 38.707 8.7031 79.25 3.2109 114.25-15.477 4.8477-2.4961 10.398-3.2734 15.746-2.2031l63.918 13.852-13.852-62.977c-1.2148-5.6484-0.4375-11.547 2.2031-16.688z"></path>

      </g>
      </svg>